<svg xmlns="http://www.w3.org/2000/svg" xmlns:svg="http://www.w3.org/2000/svg" xmlns:xlink="http://www.w3.org/1999/xlink" id="svg2" width="48" height="48" version="1.1"><metadata id="metadata7"/><g stroke="#FFF"><line id="line1" x1="2" x2="46" y1="9" y2="9" fill="none" stroke-linecap="round" stroke-linejoin="round" stroke-width="3"/><line id="line2" x1="2" x2="46" y1="9" y2="9" fill="none" stroke-linecap="round" stroke-linejoin="round" stroke-width="3"/><line id="line3" x1="2" x2="46" y1="9" y2="9" fill="none" stroke-linecap="round" stroke-linejoin="round" stroke-width="3"/><line id="line4" x1="2" x2="46" y1="9" y2="9" fill="none" stroke-linecap="round" stroke-linejoin="round" stroke-width="3"/><line id="line5" x1="2" x2="46" y1="9" y2="9" fill="none" stroke-linecap="round" stroke-linejoin="round" stroke-width="3"/><line id="line6" x1="2" x2="46" y1="9" y2="9" fill="none" stroke-linecap="round" stroke-linejoin="round" stroke-width="3"/><line id="line7" x1="2" x2="46" y1="9" y2="9" fill="none" stroke-linecap="round" stroke-linejoin="round" stroke-width="3"/><line id="line8" x1="2" x2="46" y1="9" y2="9" fill="none" stroke-linecap="round" stroke-linejoin="round" stroke-width="3"/><line id="line9" x1="2" x2="46" y1="9" y2="9" fill="none" stroke-linecap="round" stroke-linejoin="round" stroke-width="3"/><line id="line10" x1="2" x2="46" y1="9" y2="9" fill="none" stroke-linecap="round" stroke-linejoin="round" stroke-width="3"/><line id="line11" x1="2" x2="46" y1="9" y2="9" fill="none" stroke-linecap="round" stroke-linejoin="round" stroke-width="3"/><line id="line12" x1="2" x2="46" y1="9" y2="9" fill="none" stroke-linecap="round" stroke-linejoin="round" stroke-width="3"/><line id="line13" x1="2" x2="46" y1="9" y2="9" fill="none" stroke-linecap="round" stroke-linejoin="round" stroke-width="3"/><line id="line14" x1="2" x2="46" y1="9" y2="9" fill="none" stroke-linecap="round" stroke-linejoin="round" stroke-width="3"/><line id="line15" x1="2" x2="46" y1="9" y2="9" fill="none" stroke-linecap="round" stroke-linejoin="round" stroke-width="3"/><line id="line16" x1="2" x2="46" y1="9" y2="9" fill="none" stroke-linecap="round" stroke-linejoin="round" stroke-width="3"/><line id="line17" x1="2" x2="46" y1="9" y2="9" fill="none" stroke-linecap="round" stroke-linejoin="round" stroke-width="3"/><line id="line18" x1="2" x2="46" y1="9" y2="9" fill="none" stroke-linecap="round" stroke-linejoin="round" stroke-width="3"/><line id="line19" x1="2" x2="46" y1="9" y2="9" fill="none" stroke-linecap="round" stroke-linejoin="round" stroke-width="3"/><line id="line20" x1="2" x2="46" y1="9" y2="9" fill="none" stroke-linecap="round" stroke-linejoin="round" stroke-width="3"/><path id="windowframe" fill="none" stroke="#FEFEFE" stroke-linecap="round" stroke-linejoin="round" stroke-width="3" d="m3,5 l42,0 l0,38 l-42,0 l0,-38"/><rect id="toprect" width="46" height="4" x="1" y="5" fill="#FEFEFE" stroke="#FEFEFE" stroke-linecap="round" stroke-linejoin="round" stroke-width="3"/><line id="middleline" x1="24" x2="24" y1="5" y2="43" fill="none" stroke="#FEFEFE" stroke-linecap="round" stroke-linejoin="round" stroke-width="2"/><line id="grip" x1="22" x2="26" y1="25" y2="25" fill="none" stroke="#FEFEFE" stroke-linecap="round" stroke-linejoin="round" stroke-width="3"/></g></svg>