<svg xmlns="http://www.w3.org/2000/svg" xmlns:svg="http://www.w3.org/2000/svg" xmlns:xlink="http://www.w3.org/1999/xlink" id="svg2" width="750" height="500" version="1.1"><script><![CDATA[
     var require = {
       xhtml: true
     };
     //]]></script><script data-main="demo_2d_backdrop_red_pot" type="text/javascript" xlink:href="../../dependencies/require-2.1.15.min.js"/><defs id="defs4"><linearGradient id="linearGradient3857"><stop id="stop3859" offset="0" style="stop-color:red;stop-opacity:1"/><stop id="stop3865" offset=".612" style="stop-color:#ff8f8f;stop-opacity:1"/><stop id="stop3861" offset="1" style="stop-color:red;stop-opacity:1"/></linearGradient><linearGradient id="linearGradient3863" x1="252.857" x2="434.286" y1="420.934" y2="420.934" gradientTransform="translate(0.42856598,5.2857258)" gradientUnits="userSpaceOnUse" xlink:href="#linearGradient3857"/><linearGradient id="linearGradient3873" x1="253.286" x2="436.714" y1="295.219" y2="295.219" gradientUnits="userSpaceOnUse" xlink:href="#linearGradient3857"/><linearGradient id="linearGradient4603" x1="252.857" x2="434.286" y1="420.934" y2="420.934" gradientTransform="translate(125.2851,5.8596078)" gradientUnits="userSpaceOnUse" xlink:href="#linearGradient3857"/><linearGradient id="linearGradient4606" x1="253.286" x2="436.714" y1="295.219" y2="295.219" gradientTransform="translate(124.85653,200.57388)" gradientUnits="userSpaceOnUse" xlink:href="#linearGradient3857"/></defs><metadata id="metadata7"/><g class="pipe_group show_flow flow_active"><path id="pipe1" d="m 425.8384,434.07799 c 0.6364,13.41532 0.56549,30.8791 23.95269,30.62832 70.12255,-0.7519 97.23888,7.42707 137.96865,-25.07085 40.86838,-32.60851 18.35681,-90.8422 -8.26522,-94.98813 -31.80211,-4.95265 -34.86451,66.70935 -17.88672,88.88153 15.40697,20.12076 128.71885,35.91591 131.11642,-17.03335 2.48464,-54.87234 -47.01995,-52.65006 -46.5036,-3.61604" class="pipe" style="fill:none;stroke:red;stroke-width:20"/><path id="pipe2" d="m 646.22062,410.07947 c -1.31084,48.2736 65.27818,36.38289 67.80232,36.63966" class="pipe" style="fill:none;stroke:red;stroke-width:20"/></g><g class="pipe_group"><path id="pipe1" d="m 692.79659,112.28814 c 0,29.25237 -26.08511,52.9661 -58.26272,52.9661 -32.1776,0 -58.26271,-23.71373 -58.26271,-52.9661 0,-29.252371 26.08511,-52.966103 58.26271,-52.966103 32.17761,0 58.26272,23.713732 58.26272,52.966103 z" class="pipe" style="fill:none;stroke:#00f;stroke-width:20"/></g><path id="path3029-8" d="m 524.85653,400.57388 a 100,37.795274 0 0 1 -200,0 100,37.795274 0 1 1 200,0 z" style="color:#000;fill:url(#linearGradient4606);fill-opacity:1;fill-rule:nonzero;stroke:#6a6a6a;stroke-width:2;stroke-linecap:butt;stroke-linejoin:miter;stroke-miterlimit:10;stroke-opacity:1;stroke-dasharray:none;stroke-dashoffset:0;marker:none;visibility:visible;display:inline;overflow:visible;enable-background:accumulate"/><rect id="rect3855" width="200" height="100" x="324.857" y="300.574" style="color:#000;fill:url(#linearGradient4603);fill-opacity:1;stroke:none;stroke-width:2;marker:none;visibility:visible;display:inline;overflow:visible;enable-background:accumulate"/><path id="path3029-4" d="m 524.85653,300.57388 a 100,37.795274 0 0 1 -200,0 100,37.795274 0 1 1 200,0 z" style="color:#000;fill:red;fill-opacity:1;fill-rule:nonzero;stroke:none;stroke-width:2;marker:none;visibility:visible;display:inline;overflow:visible;enable-background:accumulate"/><path id="path3817" d="m 324.85653,200.57388 0,200" style="fill:none;stroke:#6a6a6a;stroke-width:2;stroke-linecap:butt;stroke-linejoin:miter;stroke-miterlimit:4;stroke-opacity:1;stroke-dasharray:none"/><path id="path3817-5" d="m 524.85653,200.57388 0,200" style="fill:none;stroke:#6a6a6a;stroke-width:2;stroke-linecap:butt;stroke-linejoin:miter;stroke-miterlimit:4;stroke-opacity:1;stroke-dasharray:none"/><path id="path3029" d="m 524.85653,200.57388 a 100,37.795274 0 0 1 -200,0 100,37.795274 0 1 1 200,0 z" style="color:#000;fill:none;stroke:#6a6a6a;stroke-width:2;stroke-linecap:butt;stroke-linejoin:miter;stroke-miterlimit:10;stroke-opacity:1;stroke-dasharray:none;stroke-dashoffset:0;marker:none;visibility:visible;display:inline;overflow:visible;enable-background:accumulate"/><text id="text4086" x="140.313" y="124.781" xml:space="preserve" style="font-size:12px;font-style:normal;font-variant:normal;font-weight:400;font-stretch:normal;line-height:125%;letter-spacing:0;word-spacing:0;fill:#777;fill-opacity:1;stroke:none;font-family:Arial;-inkscape-font-specification:Arial"><tspan id="tspan4088" x="140.313" y="124.781" style="font-size:24px;fill:#777;fill-opacity:1;stroke:none">2D Demo</tspan></text></svg>