<svg xmlns="http://www.w3.org/2000/svg" id="svg2" width="100%" height="100%" version="1.1" viewBox="0 0 994 633"><metadata id="metadata7"/><g id="layer4" display="none" transform="translate(165.9375,-111.5)"><rect style="enable-background:accumulate;color:#000" id="rect4429" width="990.67" height="529.86" x="-164.23" y="213.2" fill="#000" stroke="red" stroke-dasharray="none" stroke-dashoffset="0" stroke-linecap="butt" stroke-linejoin="miter" stroke-miterlimit="4" stroke-width="3.41"/></g><g id="layer1" fill="none" stroke="#FFF" stroke-dasharray="none" stroke-dashoffset="0" stroke-linecap="butt" stroke-linejoin="miter" stroke-miterlimit="4" transform="translate(165.9375,-111.5)"><rect id="rect3953" width="20" height="20" x="428.89" y="422.6" stroke-width="1.25" style="enable-background:accumulate;color:#000"/><rect id="rect3953-8" width="20" height="20" x="468.89" y="422.6" stroke-width="1.25" style="enable-background:accumulate;color:#000"/><rect id="rect3953-4" width="20" height="20" x="508.89" y="422.6" stroke-width="1.25" style="enable-background:accumulate;color:#000"/><rect id="rect3953-1" width="20" height="20" x="428.89" y="510.6" stroke-width="1.25" style="enable-background:accumulate;color:#000"/><rect id="rect3953-6" width="20" height="20" x="468.89" y="510.6" stroke-width="1.25" style="enable-background:accumulate;color:#000"/><rect id="rect3953-0" width="20" height="20" x="508.89" y="510.6" stroke-width="1.25" style="enable-background:accumulate;color:#000"/><rect id="rect4001" width="140" height="60" x="408.89" y="446.6" stroke-width="1.25" style="enable-background:accumulate;color:#000"/><rect id="rect4003" width="40" height="40" x="648.89" y="586.6" stroke-width="1.25" style="enable-background:accumulate;color:#000"/><rect id="rect4005" width="101.43" height="47.143" x="628.89" y="376.6" stroke-width="1.25" style="enable-background:accumulate;color:#000"/><rect id="rect4007" width="25.714" height="30" x="667.46" y="345.17" stroke-width="1.25" style="enable-background:accumulate;color:#000"/><rect id="rect4009" width="135.71" height="61.429" x="651.75" y="233.74" stroke-width="1.25" style="enable-background:accumulate;color:#000"/><rect id="rect4011" width="31.429" height="41.429" x="744.6" y="240.88" stroke-width="1.25" style="enable-background:accumulate;color:#000"/><rect id="rect4013" width="40" height="31.429" x="-115.4" y="410.88" stroke-width="1.25" style="enable-background:accumulate;color:#000"/><rect id="rect4015" width="65.714" height="62.857" x="-18.253" y="379.46" stroke-width="1.25" style="enable-background:accumulate;color:#000"/><rect id="rect4017" width="112.86" height="47.143" x="-143.97" y="253.74" stroke-width="1.25" style="enable-background:accumulate;color:#000"/><rect id="rect4019" width="98.571" height="32.857" x="-136.82" y="260.46" stroke-width="1.25" style="enable-background:accumulate;color:#000"/><rect id="rect4021" width="24.286" height="34.286" x="-1.11" y="253.74" stroke-width="1.25" style="enable-background:accumulate;color:#000"/><rect id="rect4023" width="134.29" height="131.43" x="-98.253" y="559.46" stroke-width="1.25" style="enable-background:accumulate;color:#000"/><rect id="rect4025" width="38.571" height="30" x="-82.539" y="653.74" stroke-width="1.25" style="enable-background:accumulate;color:#000"/><rect id="rect4027" width="38.571" height="30" x="-19.682" y="655.17" stroke-width="1.25" style="enable-background:accumulate;color:#000"/><rect id="rect4178" width="191.43" height="24.286" x="600.32" y="431.17" stroke-width="1.25" style="enable-background:accumulate;color:#000"/><path id="path4180" stroke-width="1.25" d="m193.18,388.03,0,214.29,84.286,0,0,45.714" style="enable-background:accumulate;color:#000"/><path id="path4191" stroke-width="1.25" d="m192.82,513.38-43.214,0" style="enable-background:accumulate;color:#000"/><path id="path4202" stroke-width="1.25" d="m192.82,435.53-43.571,0" style="enable-background:accumulate;color:#000"/><path id="path4213" stroke-width="1.25" d="m183.47,474.1,0,35" style="enable-background:accumulate;color:#000"/><path id="path4224" stroke-width="1.25" d="m192.82,553.03-43.214,0" style="enable-background:accumulate;color:#000"/><path id="path4235" stroke-width="1.25" d="m193.89,593.74-43.929,0" style="enable-background:accumulate;color:#000"/><path id="path4246" stroke-width="1.25" d="m88.89,690.88-244.29,0" style="enable-background:accumulate;color:#000"/><path id="path4257" stroke-width="1.25" d="m51.033,253.03-200.71,0" style="enable-background:accumulate;color:#000"/><path id="path4268" stroke-width="1.25" d="m728.89,566.6,50,0,0,140-180,0,0-50,130,0z" style="enable-background:accumulate;color:#000"/><path id="path4279" stroke-width="1.25" d="m728.89,576.6,40,0,0,120-160,0,0-40" style="enable-background:accumulate;color:#000"/><path id="path4290" stroke-width="1.25" d="m648.89,656.6,0,30" style="enable-background:accumulate;color:#000"/><path id="path4301" stroke-width="1.25" d="m688.89,656.6,0,30" style="enable-background:accumulate;color:#000"/><path id="path4312" stroke-width="1.25" d="m728.89,656.6,0,30" style="enable-background:accumulate;color:#000"/><path id="path4323" stroke-width="1.25" d="m728.89,616.6,30,0" style="enable-background:accumulate;color:#000"/><path id="path4334" stroke-width="1.25" d="m728.89,656.6,30,0" style="enable-background:accumulate;color:#000"/><path id="path4213-5" stroke-width="1.25" d="m171.69,474.1,0,35" style="enable-background:accumulate;color:#000"/><path id="path4213-2" stroke-width="1.25" d="m159.9,474.1,0,35" style="enable-background:accumulate;color:#000"/><path id="path4381" stroke-width=".625" d="m260,519.86c0,1.3807-1.1193,2.5-2.5,2.5s-2.5-1.1193-2.5-2.5,1.1193-2.5,2.5-2.5,2.5,1.1193,2.5,2.5z" transform="matrix(2,0,0,2,-331.11031,-476.61111)" style="enable-background:accumulate;color:#000"/><path id="path4381-4" stroke-width=".625" d="m260,519.86c0,1.3807-1.1193,2.5-2.5,2.5s-2.5-1.1193-2.5-2.5,1.1193-2.5,2.5-2.5,2.5,1.1193,2.5,2.5z" transform="matrix(2,0,0,2,-354.68174,-455.89683)" style="enable-background:accumulate;color:#000"/><path id="path4381-0" stroke-width=".433" d="m260,519.86c0,1.3807-1.1193,2.5-2.5,2.5s-2.5-1.1193-2.5-2.5,1.1193-2.5,2.5-2.5,2.5,1.1193,2.5,2.5z" transform="matrix(2.9903028,0,0,2.7882722,-588.58903,-867.6604)" style="enable-background:accumulate;color:#000"/><path id="path4381-7" stroke-width=".459" d="m260,519.86c0,1.3807-1.1193,2.5-2.5,2.5s-2.5-1.1193-2.5-2.5,1.1193-2.5,2.5-2.5,2.5,1.1193,2.5,2.5z" transform="matrix(2.8286994,0,0,2.6266688,-566.00009,-800.82584)" style="enable-background:accumulate;color:#000"/><rect id="rect4415" width="30.714" height="28.571" x="156.03" y="440.17" stroke-width="1.25" style="enable-background:accumulate;color:#000"/><path id="path4417" stroke-width=".504" d="m175.77,376.7c0,1.8829-1.5264,3.4093-3.4093,3.4093s-3.4093-1.5264-3.4093-3.4093,1.5264-3.4093,3.4093-3.4093,3.4093,1.5264,3.4093,3.4093z" transform="matrix(2.3560312,0,0,2.6152906,-394.95966,-710.03034)" style="enable-background:accumulate;color:#000"/><path id="path4516-4" stroke-width="1.25" d="m-142.77,450.98,40,40,0-40-40,40,0-40,40,0,0,40-40,0" style="enable-background:accumulate;color:#000"/><path id="path4516-39" stroke-width="1.25" d="m-100.76,450.98,40,40,0-40-40,40,0-40,40,0,0,40-40,0" style="enable-background:accumulate;color:#000"/><path id="path4516-19" stroke-width="1.25" d="m-58.755,450.98,40,40,0-40-40,40,0-40,40,0,0,40-40,0" style="enable-background:accumulate;color:#000"/><path id="path4516-0" stroke-width="1.25" d="m-16.75,450.98,40,40,0-40-40,40,0-40,40,0,0,40-40,0" style="enable-background:accumulate;color:#000"/><path id="path4630" stroke-width="1.25" d="m-31.11,560.14,0,130.31" style="enable-background:accumulate;color:#000"/><path id="path4516" stroke-width="1.25" d="m473.18,234.83,40,40,0-40-40,40,0-40,40,0,0,40-40,0" style="enable-background:accumulate;color:#000"/><path id="path4516-1" stroke-width="1.25" d="m515.1,235.06,40,40,0-40-40,40,0-40,40,0,0,40-40,0" style="enable-background:accumulate;color:#000"/><path id="path4516-5" stroke-width="1.25" d="m195.38,390.88,40,40,0-40-40,40,0-40,40,0,0,40-40,0" style="enable-background:accumulate;color:#000"/><path id="path4516-3" stroke-width="1.25" d="m237.3,390.88,40,40,0-40-40,40,0-40,40,0,0,40-40,0" style="enable-background:accumulate;color:#000"/><path id="path4618" stroke-width="1.25" d="m-96.11,442.67,0-11.429" style="enable-background:accumulate;color:#000"/><rect id="rect4626" width="32.857" height="25" x="-111.82" y="414.1" stroke-width="1.25" style="enable-background:accumulate;color:#000"/><path id="path4628" stroke-width=".784" d="m188.75,444.42c0,8.5308-7.1954,15.446-16.071,15.446-8.876,0-16.071-6.9156-16.071-15.446,0-8.5308,7.1954-15.446,16.071-15.446,8.876,0,16.071,6.9156,16.071,15.446z" transform="matrix(1.5935829,0,0,1.5935829,-260.93079,-297.50818)" style="enable-background:accumulate;color:#000"/></g><g id="layer3" fill="none" stroke="#CCC" stroke-dasharray="none" stroke-linecap="butt" stroke-linejoin="miter" stroke-miterlimit="4" transform="translate(165.9375,-111.5)"><path id="path3810" stroke-width="14.8" d="m388.89,226.6,420,0,0,500-240,0,0-80-480,0,0,80-240,0,0-500,460,0"/><path id="path3812" stroke-width="6.6" d="m808.89,426.6-240,0,0-40-200,0"/><path id="path3814" stroke-dashoffset="0" stroke-width="6.6" d="m288.89,386.6-160,0" style="enable-background:accumulate;color:#000"/><path id="path3833" stroke-dashoffset="0" stroke-width="6.6" d="m48.89,366.6,0,80-200,0" style="enable-background:accumulate;color:#000"/><path id="path3841" stroke-dashoffset="0" stroke-width="6.6" d="m48.89,306.6,0-80" style="enable-background:accumulate;color:#000"/><path id="path3849" stroke-dashoffset="0" stroke-width="6.6" d="m148.89,386.6,0,260" style="enable-background:accumulate;color:#000"/><path id="path3857" stroke-dashoffset="0" stroke-width="6.6" d="m468.89,386.6,0-20" style="enable-background:accumulate;color:#000"/><path id="path3865" stroke-dashoffset="0" stroke-width="6.6" d="m468.89,306.6,0-80" style="enable-background:accumulate;color:#000"/></g><g id="layer5" fill="none" stroke="#000" stroke-dasharray="none" stroke-linecap="butt" stroke-linejoin="miter" stroke-miterlimit="4" stroke-width="8.6" transform="translate(165.9375,-111.5)"><path id="path3873" d="m808.89,326.6,0,80"/><path id="path3875" stroke-dashoffset="0" d="m808.89,486.6,0,100" style="enable-background:accumulate;color:#000"/><path id="path3900" stroke-dashoffset="0" d="m388.89,646.6,140,0" style="enable-background:accumulate;color:#000"/><path id="path3908" stroke-dashoffset="0" d="m-151.11,426.6,0-60" style="enable-background:accumulate;color:#000"/><path id="path3916" stroke-dashoffset="0" d="m-151.11,506.6,0,60" style="enable-background:accumulate;color:#000"/><path id="path3935" stroke-dashoffset="0" d="m268.89,646.6-60,0" style="enable-background:accumulate;color:#000"/><path id="path3943" stroke-dashoffset="0" d="m148.89,646.6-40,0" style="enable-background:accumulate;color:#000"/></g></svg>