<svg xmlns="http://www.w3.org/2000/svg" xmlns:svg="http://www.w3.org/2000/svg" xmlns:xlink="http://www.w3.org/1999/xlink" id="svg4247" width="905.459" height="506.072" version="1.1" viewBox="0 0 848.868 474.442"><defs id="defs4249"><linearGradient id="linearGradient5982"><stop style="stop-color:#131eff;stop-opacity:.50270271" id="stop5984" offset="0"/><stop style="stop-color:#ff3434;stop-opacity:.50540543" id="stop5986" offset="1"/></linearGradient><linearGradient id="linearGradient5988" x1="412.362" x2="411.708" y1="438.965" y2="301.465" gradientUnits="userSpaceOnUse" xlink:href="#linearGradient5982"/><linearGradient id="linearGradient6010" x1="519.097" x2="518.973" y1="433.482" y2="301.657" gradientUnits="userSpaceOnUse" xlink:href="#linearGradient5982"/></defs><metadata id="metadata4252"/><g id="layer1" transform="translate(192.95696,-30.376237)"><path style="fill:none;fill-rule:evenodd;stroke:#fff;stroke-width:3;stroke-linecap:butt;stroke-linejoin:miter;stroke-miterlimit:4;stroke-dasharray:none;stroke-opacity:1" id="path4937" d="m 206.51652,150.95665 0,300"/><g id="g6029" class="pipe_group show_flow flow_active" data-cometvisu-active="12/7/50"><path style="color:#000;clip-rule:nonzero;display:inline;overflow:visible;visibility:visible;opacity:1;isolation:auto;mix-blend-mode:normal;color-interpolation:sRGB;color-interpolation-filters:linearRGB;solid-color:#000;solid-opacity:1;fill:none;fill-opacity:1;fill-rule:evenodd;stroke:#00f;stroke-width:6;stroke-linecap:butt;stroke-linejoin:round;stroke-miterlimit:4;stroke-dasharray:none;stroke-dashoffset:0;stroke-opacity:1;color-rendering:auto;image-rendering:auto;shape-rendering:auto;text-rendering:auto;enable-background:accumulate" id="path5808-2-0-0-7-2" d="m 488.48953,480.10863 -169.90634,-1e-5 c 0,0 -25.89459,1.95908 -41.11192,-14.01586 -15.2173,-15.97492 -11.3642,-36.91693 -11.3642,-36.91693 l 0,-27.44676 c 0,0 1.3394,-7.12946 -4.82144,-13.82598 -6.16082,-6.69654 -14.9025,-5.0893 -14.9025,-5.0893 l -70.94199,0.41693 c 0.21053,-11.51817 -19.29429,-25.98179 -50.929,-37.50514 -31.634682,-11.52336 -70.571602,-18.34792 -102.088399,-17.89324 -31.5167683,0.4547 -50.803713,8.11922 -50.568279,20.09558"/><path style="color:#000;clip-rule:nonzero;display:inline;overflow:visible;visibility:visible;opacity:1;isolation:auto;mix-blend-mode:normal;color-interpolation:sRGB;color-interpolation-filters:linearRGB;solid-color:#000;solid-opacity:1;fill:none;fill-opacity:1;fill-rule:evenodd;stroke:#3200cc;stroke-width:6;stroke-linecap:butt;stroke-linejoin:round;stroke-miterlimit:4;stroke-dasharray:none;stroke-dashoffset:0;stroke-opacity:1;color-rendering:auto;image-rendering:auto;shape-rendering:auto;text-rendering:auto;enable-background:accumulate" id="path6702" d="m -28.146671,347.4124 c 0,13.38267 19.4218754,19.48965 50.949583,19.8852 31.52772,0.39554 70.37148,-6.45366 101.899168,-17.96758 31.52772,-11.51393 50.76017,-20.13588 50.9496,-37.31031"/><path style="color:#000;clip-rule:nonzero;display:inline;overflow:visible;visibility:visible;opacity:1;isolation:auto;mix-blend-mode:normal;color-interpolation:sRGB;color-interpolation-filters:linearRGB;solid-color:#000;solid-opacity:1;fill:none;fill-opacity:1;fill-rule:evenodd;stroke:#650099;stroke-width:6;stroke-linecap:butt;stroke-linejoin:round;stroke-miterlimit:4;stroke-dasharray:none;stroke-dashoffset:0;stroke-opacity:1;color-rendering:auto;image-rendering:auto;shape-rendering:auto;text-rendering:auto;enable-background:accumulate" id="path5808-2-0-0" d="M 175.65168,312.01971 C 175.84109,294.84528 130.02987,271.18278 73.752497,261.25956 17.475122,251.33634 -28.146701,256.74337 -28.146686,275.1538"/><path style="color:#000;clip-rule:nonzero;display:inline;overflow:visible;visibility:visible;opacity:1;isolation:auto;mix-blend-mode:normal;color-interpolation:sRGB;color-interpolation-filters:linearRGB;solid-color:#000;solid-opacity:1;fill:none;fill-opacity:1;fill-rule:evenodd;stroke:#990065;stroke-width:6;stroke-linecap:butt;stroke-linejoin:round;stroke-miterlimit:4;stroke-dasharray:none;stroke-dashoffset:0;stroke-opacity:1;color-rendering:auto;image-rendering:auto;shape-rendering:auto;text-rendering:auto;enable-background:accumulate" id="path5808-2-0-0-7" d="m 174.89406,239.83774 c 0.3788,17.26914 -18.66426,25.25882 -50.19199,36.77274 -31.527693,11.51391 -70.371438,18.36311 -101.899158,17.96757 -31.5277076,-0.39555 -50.146009,-8.51145 -50.949568,-19.88521"/><path style="color:#000;clip-rule:nonzero;display:inline;overflow:visible;visibility:visible;opacity:1;isolation:auto;mix-blend-mode:normal;color-interpolation:sRGB;color-interpolation-filters:linearRGB;solid-color:#000;solid-opacity:1;fill:none;fill-opacity:1;fill-rule:evenodd;stroke:#cc0032;stroke-width:6;stroke-linecap:butt;stroke-linejoin:round;stroke-miterlimit:4;stroke-dasharray:none;stroke-dashoffset:0;stroke-opacity:1;color-rendering:auto;image-rendering:auto;shape-rendering:auto;text-rendering:auto;enable-background:accumulate" id="path6706" d="m -28.146671,202.43031 c -0.401802,-14.39259 45.621808,-21.54069 101.899168,-11.61747 56.277363,9.92322 101.520363,26.83126 101.141563,49.0249"/><path style="fill:none;fill-rule:evenodd;stroke:red;stroke-width:6;stroke-linecap:butt;stroke-linejoin:round;stroke-miterlimit:4;stroke-dasharray:none;stroke-opacity:1" id="path5928" d="m -27.765416,199.90698 c -3.237065,12.77857 14.260201,21.49794 45.565288,22.70646 31.305105,1.20852 71.370615,-5.2887 104.336068,-16.91963 32.96546,-11.63092 53.51573,-26.52028 53.03733,-37.96983 l 114.54846,0.80409 c 0,0 8.71547,-1.00299 13.69593,4.16688 4.98047,5.16987 3.59867,12.76344 3.59867,12.76344 l 0,235.12326 c 0,0 -0.82076,8.57001 3.97747,14.12586 4.79823,5.55585 13.43324,4.35629 13.43324,4.35629 l 164.19642,0"/></g><ellipse style="color:#000;clip-rule:nonzero;display:inline;overflow:visible;visibility:visible;opacity:1;isolation:auto;mix-blend-mode:normal;color-interpolation:sRGB;color-interpolation-filters:linearRGB;solid-color:#000;solid-opacity:1;fill:none;fill-opacity:1;fill-rule:evenodd;stroke:#fff;stroke-width:3;stroke-linecap:butt;stroke-linejoin:miter;stroke-miterlimit:4;stroke-dasharray:none;stroke-dashoffset:0;stroke-opacity:1;color-rendering:auto;image-rendering:auto;shape-rendering:auto;text-rendering:auto;enable-background:accumulate" id="path4916" cx="74.909" cy="450.957" rx="131.786" ry="48.214"/><ellipse id="ellipse4939" cx="74.909" cy="150.957" rx="131.786" ry="48.214" style="color:#000;clip-rule:nonzero;display:inline;overflow:visible;visibility:visible;opacity:1;isolation:auto;mix-blend-mode:normal;color-interpolation:sRGB;color-interpolation-filters:linearRGB;solid-color:#000;solid-opacity:1;fill:none;fill-opacity:1;fill-rule:evenodd;stroke:#fff;stroke-width:3;stroke-linecap:butt;stroke-linejoin:miter;stroke-miterlimit:4;stroke-dasharray:none;stroke-dashoffset:0;stroke-opacity:1;color-rendering:auto;image-rendering:auto;shape-rendering:auto;text-rendering:auto;enable-background:accumulate"/><path style="fill:none;fill-rule:evenodd;stroke:#fff;stroke-width:3;stroke-linecap:butt;stroke-linejoin:miter;stroke-miterlimit:4;stroke-dasharray:none;stroke-opacity:1" id="path4937-8" d="m -56.698529,150.95665 0,300"/><g id="g5802" class="pipe_group show_flow flow_active" transform="matrix(1.5,0,0,1.5,-133.45503,-151.51523)"><path style="fill:none;fill-rule:evenodd;stroke:#8200ff;stroke-width:4;stroke-linecap:butt;stroke-linejoin:miter;stroke-miterlimit:4;stroke-dasharray:none;stroke-opacity:1" id="path4981" d="m 144.05742,402.92088 0,8.69977 c 0.11764,1.93424 -0.86417,3.47979 -3.33833,3.3353 l -133.1429459,0"/><path style="fill:none;fill-rule:evenodd;stroke:red;stroke-width:4;stroke-linecap:butt;stroke-linejoin:miter;stroke-miterlimit:4;stroke-dasharray:none;stroke-opacity:1" id="path5798" d="m 7.5761441,398.78078 61.6684469,0 c 0,0 5.217474,0.0939 5.153214,5.71429 0.568066,8.36633 21.410537,17.47028 52.536895,19.94521 33.63313,2.67426 68.32881,-5.62891 75.24957,-18.71354 6.37971,-12.06176 -13.76907,-24.49489 -45.48605,-26.93547 -29.05689,-2.23588 -58.982441,4.96786 -64.74566,16.29302 -5.241884,10.30066 12.05088,20.899 39.19575,22.8935 24.47992,1.79868 49.63997,-4.30657 54.24175,-13.87247 4.10791,-8.53924 -10.33198,-17.3051 -32.90544,-18.85155 -19.90183,-1.36343 -40.30431,3.64493 -43.73787,11.45193 -2.98066,6.77723 8.61194,13.71477 26.61515,14.80959 15.32168,0.93174 30.98206,-2.98275 33.23397,-9.03139 1.86676,-5.01411 -6.89014,-10.13224 -20.32485,-10.76763 -10.73714,-0.50781 -21.69245,2.31982 -22.73007,6.61084 -0.78544,3.24815 5.16741,6.57202 14.03454,6.72569 6.1381,0.10635 12.522,-1.65956 12.22618,-4.19032 -0.1715,-1.46715 -1.11348,-2.62621 -3.70364,-2.55744 -3.59466,-0.13393 -4.07205,1.74259 -4.04061,4.61584"/></g><g id="g6012" transform="matrix(1.5,0,0,1.5,-137.90146,-156.4438)"><rect style="color:#000;clip-rule:nonzero;display:inline;overflow:visible;visibility:visible;opacity:1;isolation:auto;mix-blend-mode:normal;color-interpolation:sRGB;color-interpolation-filters:linearRGB;solid-color:#000;solid-opacity:1;fill:none;fill-opacity:1;fill-rule:evenodd;stroke:#fff;stroke-width:2;stroke-linecap:butt;stroke-linejoin:miter;stroke-miterlimit:4;stroke-dasharray:none;stroke-dashoffset:0;stroke-opacity:1;color-rendering:auto;image-rendering:auto;shape-rendering:auto;text-rendering:auto;enable-background:accumulate" id="rect5951" width="105.561" height="138.896" x="422.647" y="280.946"/><path id="path5953" d="m 412.64731,300.44048 9.97526,-19.95051" style="fill:none;fill-rule:evenodd;stroke:#fff;stroke-width:2;stroke-linecap:butt;stroke-linejoin:miter;stroke-miterlimit:4;stroke-dasharray:none;stroke-opacity:1"/><path id="path5953-9" d="m 517.94569,300.83745 9.97526,-19.95051" style="fill:none;fill-rule:evenodd;stroke:#fff;stroke-width:2;stroke-linecap:butt;stroke-linejoin:miter;stroke-miterlimit:4;stroke-dasharray:none;stroke-opacity:1"/><path id="path5953-3" d="m 518.30283,440.01856 9.97526,-19.95051" style="fill:none;fill-rule:evenodd;stroke:#fff;stroke-width:2;stroke-linecap:butt;stroke-linejoin:miter;stroke-miterlimit:4;stroke-dasharray:none;stroke-opacity:1"/><path id="path5953-8" d="m 412.94568,439.40888 9.97526,-19.95051" style="fill:none;fill-rule:evenodd;stroke:#fff;stroke-width:2;stroke-linecap:butt;stroke-linejoin:miter;stroke-miterlimit:4;stroke-dasharray:none;stroke-opacity:1"/><rect id="rect5934" width="105.561" height="138.896" x="412.647" y="300.946" style="color:#000;clip-rule:nonzero;display:inline;overflow:visible;visibility:visible;opacity:1;isolation:auto;mix-blend-mode:normal;color-interpolation:sRGB;color-interpolation-filters:linearRGB;solid-color:#000;solid-opacity:1;fill:url(#linearGradient5988);fill-opacity:1;fill-rule:evenodd;stroke:#fff;stroke-width:2;stroke-linecap:butt;stroke-linejoin:miter;stroke-miterlimit:4;stroke-dasharray:none;stroke-dashoffset:0;stroke-opacity:1;color-rendering:auto;image-rendering:auto;shape-rendering:auto;text-rendering:auto;enable-background:accumulate"/><path id="path5992" d="m 526.16794,281.91715 c -34.44985,0.056 -68.89972,0.0762 -103.34961,0.0645 -2.59595,5.95039 -5.70553,11.78791 -8.50977,17.67774 7.44905,0.38858 14.94384,0.0999 22.41278,0.18945 26.82855,0 53.65711,0 80.48566,0 2.98739,-5.97701 5.97437,-11.95422 8.96094,-17.93164 z" style="color:#000;clip-rule:nonzero;display:inline;overflow:visible;visibility:visible;opacity:1;isolation:auto;mix-blend-mode:normal;color-interpolation:sRGB;color-interpolation-filters:linearRGB;solid-color:#000;solid-opacity:1;fill:#ff3434;fill-opacity:.50588223;fill-rule:nonzero;stroke:none;stroke-width:.50507629;stroke-linecap:butt;stroke-linejoin:miter;stroke-miterlimit:4;stroke-dasharray:none;stroke-dashoffset:0;stroke-opacity:1;color-rendering:auto;image-rendering:auto;shape-rendering:auto;text-rendering:auto;enable-background:accumulate"/><path id="path5996" d="m 527.15231,284.8234 c -2.54545,5.24592 -5.45466,10.40535 -7.77351,15.70545 0.0294,44.70964 -0.10145,89.42043 0.0324,134.12933 1.25248,-0.97735 3.24662,-6.10106 4.76395,-8.87142 1.02797,-2.11158 2.151,-3.96081 3.13151,-5.98299 -0.29404,-3.68106 -0.0442,-8.29506 -0.12875,-12.18998 -0.009,-40.93013 -0.0173,-81.86026 -0.0255,-122.79039 z m -0.85742,126.14258 -3.59768,2.32539 z" style="color:#000;clip-rule:nonzero;display:inline;overflow:visible;visibility:visible;opacity:1;isolation:auto;mix-blend-mode:normal;color-interpolation:sRGB;color-interpolation-filters:linearRGB;solid-color:#000;solid-opacity:1;fill:url(#linearGradient6010);fill-opacity:1;fill-rule:nonzero;stroke:none;stroke-width:.50507629;stroke-linecap:butt;stroke-linejoin:miter;stroke-miterlimit:4;stroke-dasharray:none;stroke-dashoffset:0;stroke-opacity:1;color-rendering:auto;image-rendering:auto;shape-rendering:auto;text-rendering:auto;enable-background:accumulate"/></g><path id="ellipse6039" d="M 37.890552,497.22972 A 131.78571,48.214287 0 0 1 -52.479711,463.30708" style="color:#000;clip-rule:nonzero;display:inline;overflow:visible;visibility:visible;opacity:1;isolation:auto;mix-blend-mode:normal;color-interpolation:sRGB;color-interpolation-filters:linearRGB;solid-color:#000;solid-opacity:1;fill:none;fill-opacity:1;fill-rule:evenodd;stroke:#fff;stroke-width:3;stroke-linecap:butt;stroke-linejoin:miter;stroke-miterlimit:4;stroke-dasharray:none;stroke-dashoffset:0;stroke-opacity:1;color-rendering:auto;image-rendering:auto;shape-rendering:auto;text-rendering:auto;enable-background:accumulate"/></g></svg>