<svg xmlns="http://www.w3.org/2000/svg" xmlns:svg="http://www.w3.org/2000/svg" id="svg2" width="100" height="100" version="1.1"><metadata id="metadata7"/><g id="layer3"><path id="Hintergrund" d="m 74.321962,959.2342 -4.509945,7.81145 m -62.438896,10.12744 7.811454,4.50995 m 84.325395,20.17806 -9.01989,0 m -83.616959,24.822 7.811454,-4.51 m 60.503413,22.8148 -4.509945,-7.8114 M 49.5,1051.8711 l 0,-9.0199 m -23.821962,2.6367 4.509945,-7.8114 m 62.438896,-10.1275 -7.811454,-4.5099 m -84.325375,-20.178 9.01989,0 m 83.616939,-24.82198 -7.811454,4.50994 m -60.503413,-22.81486 4.509945,7.81145 M 50.5,952.85113 l 0,9.01989 m 0,-9.01989 0,9.01989 m 49.055278,40.49118 c 0,27.3686 -22.186656,49.5553 -49.555277,49.5553 -27.368622,0 -49.5552734,-22.1867 -49.5552734,-49.5553 0,-27.36865 22.1866514,-49.55529 49.5552734,-49.55529 27.368621,0 49.555277,22.18664 49.555277,49.55529 z" transform="translate(0.03125,-952.40625)" style="fill:none;stroke:gray;stroke-width:.98233086000000003px;stroke-linecap:butt;stroke-linejoin:miter;stroke-opacity:1"/><g id="Hour"><path id="HotSpotHour" d="m 59.346463,978.11597 a 8.586297,8.586297 0 1 1 -17.172594,0 8.586297,8.586297 0 1 1 17.172594,0 z" transform="matrix(1.1005583,0,0,1.1005583,-5.8332726,-1051.5177)" style="color:#000;fill:#00f;stroke:#00f;stroke-width:1;stroke-linecap:butt;stroke-linejoin:miter;stroke-miterlimit:4;stroke-opacity:1;stroke-dasharray:none;stroke-dashoffset:0;marker:none;visibility:visible;display:inline;overflow:visible;enable-background:accumulate"/><path id="path2991" d="M 50,50 50,25" style="fill:none;stroke:red;stroke-width:1.45699584px;stroke-linecap:butt;stroke-linejoin:miter;stroke-opacity:1"/></g><g id="Minute"><path id="HotSpotMinute" d="m 59.093924,962.45862 a 8.8388348,8.8388348 0 1 1 -17.67767,0 8.8388348,8.8388348 0 1 1 17.67767,0 z" transform="matrix(1.0789434,0,0,0.79610074,-4.1911507,-758.75808)" style="color:#000;fill:#00f;stroke:#00f;stroke-width:1;stroke-linecap:butt;stroke-linejoin:miter;stroke-miterlimit:4;stroke-opacity:1;stroke-dasharray:none;stroke-dashoffset:0;marker:none;visibility:visible;display:inline;overflow:visible;enable-background:accumulate"/><path id="path2989" d="M 50,50 50,5" style="fill:none;stroke:red;stroke-width:.92645031px;stroke-linecap:butt;stroke-linejoin:miter;stroke-opacity:1"/></g></g></svg>